<svg width="760" height="304" viewBox="0 0 760 304" fill="none" xmlns="http://www.w3.org/2000/svg">
<rect width="152" height="152" transform="translate(456)" fill="#D6BBFB"/>
<path d="M456 76H532C532 117.974 497.974 152 456 152V76Z" fill="white"/>
<path d="M532 0C573.974 0 608 34.0264 608 76H532V0Z" fill="#6941C6"/>
<rect width="152" height="152" transform="translate(456 152)" fill="#E9D7FE"/>
<path d="M532 228H608C608 269.974 573.974 304 532 304V228Z" fill="#9E77ED"/>
<path d="M532 228C490.026 228 456 262.026 456 304H532V228Z" fill="#6941C6"/>
<rect width="152" height="152" transform="translate(152 152)" fill="white"/>
<path d="M304 228H228C228 269.974 262.026 304 304 304V228Z" fill="#9E77ED"/>
<path d="M228 152C269.974 152 304 186.026 304 228H228V152Z" fill="#6941C6"/>
<rect width="152" height="152" transform="translate(304)" fill="white"/>
<path d="M380 76H456L380 152V76Z" fill="#9E77ED"/>
<path d="M380 0V76H304L380 0Z" fill="#9E77ED"/>
<rect width="152" height="152" transform="translate(304 152)" fill="#D6BBFB"/>
<path d="M380 304C338.026 304 304 269.974 304 228C304 186.026 338.026 152 380 152V304Z" fill="#6941C6"/>
<circle cx="380" cy="228" r="38" fill="white"/>
<rect width="152" height="152" fill="white"/>
<rect x="76" y="76" width="76" height="76" fill="#9E77ED"/>
<rect width="76" height="76" fill="#E9D7FE"/>
<rect width="152" height="152" transform="translate(0 152)" fill="#E9D7FE"/>
<circle cx="76" cy="228" r="38" fill="white"/>
<path d="M152 304H0L76 228L152 304Z" fill="#6941C6"/>
<rect width="152" height="152" transform="translate(152)" fill="#D6BBFB"/>
<path d="M304 0V152H152L304 0Z" fill="#6941C6"/>
<circle cx="228" cy="76" r="38" fill="white"/>
<rect width="152" height="152" transform="translate(608 152)" fill="#E9D7FE"/>
<path d="M608 228C608 186.026 642.026 152 684 152C725.974 152 760 186.026 760 228L608 228Z" fill="#9E77ED"/>
<ellipse cx="684" cy="266" rx="38" ry="38" fill="white"/>
<rect width="152" height="152" transform="translate(608)" fill="white"/>
<path d="M760 152C718.026 152 684 117.974 684 76C684 34.0264 718.026 0 760 0V152Z" fill="#6941C6"/>
<circle cx="646" cy="76" r="38" fill="#D6BBFB"/>
</svg>
