<svg width="1184" height="444" viewBox="0 0 1184 444" fill="none" xmlns="http://www.w3.org/2000/svg">
<path d="M1184 74C1184 114.869 1150.87 148 1110 148C1069.13 148 1036 114.869 1036 74C1036 33.1309 1069.13 0 1110 0C1150.87 0 1184 33.1309 1184 74Z" fill="#53389E"/>
<path d="M888 148L888 111C949.304 111 999 61.3036 999 0L1036 6.13669e-05C1036 81.7382 969.738 148 888 148Z" fill="#6941C6"/>
<path d="M592 296C551.131 296 518 262.869 518 222H592V296Z" fill="#D6BBFB"/>
<path d="M592 148C592 188.869 558.87 222 518 222L518 148L592 148Z" fill="#D6BBFB"/>
<path d="M444 148C484.87 148 518 181.131 518 222L444 222L444 148Z" fill="#D6BBFB"/>
<path d="M444.001 296C444 255.131 477.131 222 518 222L518 296L444.001 296Z" fill="#D6BBFB"/>
<path d="M1013.11 218.39C1020.31 220.733 1028.01 222 1036 222C1043.99 222 1051.69 220.733 1058.89 218.39L1013.11 218.39Z" fill="#B692F6"/>
<path d="M1074.56 211.171C1072.42 212.483 1070.2 213.688 1067.92 214.78L1004.08 214.781C1001.8 213.688 999.582 212.483 997.438 211.171L1074.56 211.171Z" fill="#B692F6"/>
<path d="M1084.43 203.951C1082.98 205.211 1081.47 206.416 1079.92 207.561L992.077 207.561C990.527 206.416 989.023 205.211 987.568 203.951L1084.43 203.951Z" fill="#B692F6"/>
<path d="M1091.69 196.732C1090.6 197.972 1089.48 199.176 1088.31 200.341L983.69 200.341C982.524 199.176 981.396 197.972 980.31 196.732L1091.69 196.732Z" fill="#B692F6"/>
<path d="M1097.27 189.512C1096.43 190.742 1095.56 191.946 1094.66 193.122L977.344 193.122C976.438 191.946 975.567 190.742 974.732 189.512L1097.27 189.512Z" fill="#B692F6"/>
<path d="M1101.59 182.293C1100.95 183.516 1100.28 184.72 1099.57 185.902L972.43 185.902C971.724 184.72 971.05 183.517 970.408 182.293L1101.59 182.293Z" fill="#B692F6"/>
<path d="M1104.89 175.073C1104.41 176.293 1103.9 177.496 1103.36 178.683L968.641 178.683C968.1 177.496 967.589 176.293 967.109 175.073L1104.89 175.073Z" fill="#B692F6"/>
<path d="M1107.31 167.854C1106.97 169.07 1106.6 170.273 1106.2 171.463L965.797 171.463C965.4 170.273 965.031 169.07 964.694 167.854L1107.31 167.854Z" fill="#B692F6"/>
<path d="M1108.93 160.634C1108.72 161.848 1108.48 163.051 1108.21 164.244L963.788 164.244C963.521 163.051 963.283 161.848 963.074 160.634L1108.93 160.634Z" fill="#B692F6"/>
<path d="M1109.8 153.415C1109.72 154.626 1109.6 155.83 1109.46 157.024L962.545 157.024C962.399 155.83 962.283 154.626 962.195 153.415L1109.8 153.415Z" fill="#B692F6"/>
<path d="M1109.98 148C1110.01 149.203 1110.01 148.602 1109.98 149.805L962.022 149.805C961.993 148.605 961.993 149.2 962.022 148L1109.98 148Z" fill="#B692F6"/>
<path fill-rule="evenodd" clip-rule="evenodd" d="M888 148C888 229.738 954.262 296 1036 296C1117.74 296 1184 229.738 1184 148L888 148ZM925 148C925 209.304 974.696 259 1036 259C1097.3 259 1147 209.304 1147 148L925 148Z" fill="#B692F6"/>
<path d="M592 296H588.391V444H592V296Z" fill="#53389E"/>
<path d="M584.781 296H581.171V444H584.781V296Z" fill="#53389E"/>
<path d="M577.561 296H573.952V444H577.561V296Z" fill="#53389E"/>
<path d="M570.342 296H566.732V444H570.342V296Z" fill="#53389E"/>
<path d="M563.122 296H559.513V444H563.122V296Z" fill="#53389E"/>
<path d="M555.903 296H552.293V444H555.903V296Z" fill="#53389E"/>
<path d="M548.683 296H545.074V444H548.683V296Z" fill="#53389E"/>
<path d="M541.464 296H537.854V444H541.464V296Z" fill="#53389E"/>
<path d="M534.244 296H530.635V444H534.244V296Z" fill="#53389E"/>
<path d="M527.025 296H523.415V444H527.025V296Z" fill="#53389E"/>
<path d="M519.805 296H516.196V444H519.805V296Z" fill="#53389E"/>
<path d="M512.586 296H508.976V444H512.586V296Z" fill="#53389E"/>
<path d="M505.366 296H501.757V444H505.366V296Z" fill="#53389E"/>
<path d="M498.147 296H494.537V444H498.147V296Z" fill="#53389E"/>
<path d="M490.927 296H487.318V444H490.927V296Z" fill="#53389E"/>
<path d="M483.708 296H480.098V444H483.708V296Z" fill="#53389E"/>
<path d="M476.488 296H472.879V444H476.488V296Z" fill="#53389E"/>
<path d="M469.269 296H465.659V444H469.269V296Z" fill="#53389E"/>
<path d="M462.049 296H458.44V444H462.049V296Z" fill="#53389E"/>
<path d="M454.83 296H451.22V444H454.83V296Z" fill="#53389E"/>
<path d="M447.61 296H444V444H447.61V296Z" fill="#53389E"/>
<path d="M556.85 333H482.85V407H556.85V333Z" fill="#53389E"/>
<path fill-rule="evenodd" clip-rule="evenodd" d="M151.61 51.1052C149.267 58.3145 148 66.0093 148 74C148 81.9907 149.267 89.6855 151.61 96.8948V51.1052ZM158.83 112.562C157.518 110.418 156.312 108.201 155.22 105.92V42.0797C156.312 39.7987 157.518 37.5823 158.83 35.438V112.562ZM166.049 122.432C164.789 120.977 163.585 119.473 162.44 117.923V30.0773C163.585 28.5269 164.789 27.0227 166.049 25.5682V122.432ZM173.269 129.69C172.028 128.603 170.824 127.476 169.659 126.31V21.6897C170.824 20.5237 172.028 19.3965 173.269 18.3101V129.69ZM180.488 135.268C179.258 134.433 178.054 133.562 176.879 132.656V15.3438C178.054 14.438 179.258 13.5667 180.488 12.7316V135.268ZM187.708 139.591C186.484 138.95 185.28 138.276 184.098 137.57V10.4305C185.28 9.72403 186.484 9.04963 187.708 8.40848V139.591ZM194.927 142.891C193.708 142.411 192.504 141.9 191.318 141.359V6.64103C192.504 6.09956 193.708 5.58854 194.927 5.10896V142.891ZM202.147 145.306C200.931 144.969 199.727 144.6 198.537 144.203V3.79714C199.727 3.39957 200.931 3.03142 202.147 2.69354V145.306ZM209.366 146.926C208.153 146.717 206.949 146.479 205.757 146.212V1.78848C206.949 1.52136 208.153 1.28303 209.366 1.07426V146.926ZM216.586 147.805C215.374 147.717 214.171 147.6 212.976 147.455V0.544736C214.171 0.39948 215.374 0.282695 216.586 0.195078V147.805ZM223.805 147.978C223.205 147.993 222.604 148 222 148C221.397 148 220.795 147.993 220.196 147.978V0.0215799C220.795 0.00722052 221.397 0 222 0C222.604 0 223.205 0.00722052 223.805 0.0215799V147.978ZM231.025 147.455C229.83 147.601 228.627 147.717 227.415 147.805V0.195078C228.627 0.282694 229.83 0.39948 231.025 0.544735V147.455ZM238.244 146.212C237.052 146.479 235.848 146.717 234.635 146.926V1.07426C235.848 1.28303 237.052 1.52136 238.244 1.78848V146.212ZM245.464 144.203C244.274 144.6 243.07 144.969 241.854 145.306V2.69353C243.07 3.03141 244.274 3.39957 245.464 3.79714V144.203ZM252.683 141.359C251.497 141.9 250.293 142.411 249.074 142.891V5.10896C250.293 5.58854 251.497 6.09956 252.683 6.64103V141.359ZM259.903 137.57C258.721 138.276 257.517 138.95 256.293 139.592V8.40848C257.517 9.04963 258.721 9.72403 259.903 10.4305V137.57ZM267.122 132.656C265.947 133.562 264.743 134.433 263.513 135.268V12.7316C264.743 13.5667 265.947 14.438 267.122 15.3438V132.656ZM274.342 126.31C273.177 127.476 271.973 128.603 270.732 129.69V18.3101C271.973 19.3965 273.177 20.5237 274.342 21.6897V126.31ZM281.561 117.923C280.416 119.473 279.212 120.977 277.952 122.432V25.5682C279.212 27.0227 280.416 28.5269 281.561 30.0773V117.923ZM288.781 105.92C287.689 108.201 286.483 110.418 285.171 112.562V35.438C286.483 37.5823 287.689 39.7987 288.781 42.0797V105.92ZM296 74C296 81.9907 294.734 89.6855 292.391 96.8948V51.1052C294.734 58.3145 296 66.0093 296 74Z" fill="#9E77ED"/>
<path d="M296 74C296 114.869 262.87 148 222 148V0C262.87 0 296 33.1309 296 74Z" fill="#9E77ED"/>
<path d="M0.000488281 0C40.8695 0 74.0005 33.1309 74.0005 74C74.0005 33.1309 107.131 0 148 0V74C148 114.869 114.87 148 74.0005 148C33.1314 148 0.000488281 114.869 0.000488281 74V0Z" fill="#7F56D9"/>
<path d="M592 296C632.869 296 666 329.131 666 370C666 329.131 699.131 296 740 296V370C740 410.869 706.869 444 666 444C625.131 444 592 410.869 592 370V296Z" fill="#7F56D9"/>
<path d="M148 222C148 262.869 114.869 296 74 296C33.1309 296 0 262.869 0 222H148Z" fill="#53389E"/>
<path d="M0.000157467 148H3.60991V222L0 222L0.000157467 148Z" fill="#53389E"/>
<path d="M7.21967 148H10.8294V222H7.21967V148Z" fill="#53389E"/>
<path d="M14.4392 148H18.0489V222H14.4392V148Z" fill="#53389E"/>
<path d="M21.6587 148H25.2684V222H21.6587V148Z" fill="#53389E"/>
<path d="M28.8782 148H32.488V222H28.8782V148Z" fill="#53389E"/>
<path d="M36.0977 148H39.7075V222H36.0977V148Z" fill="#53389E"/>
<path d="M43.3172 148H46.927V222H43.3172V148Z" fill="#53389E"/>
<path d="M50.5367 148H54.1465V222H50.5367V148Z" fill="#53389E"/>
<path d="M57.7562 148H61.366V222H57.7562V148Z" fill="#53389E"/>
<path d="M64.9758 148H68.5855V222H64.9758V148Z" fill="#53389E"/>
<path d="M72.1953 148H75.805V222H72.1953V148Z" fill="#53389E"/>
<path d="M79.4148 148H83.0245V222H79.4148V148Z" fill="#53389E"/>
<path d="M86.6343 148H90.244V222H86.6343V148Z" fill="#53389E"/>
<path d="M93.8538 148H97.4636V222H93.8538V148Z" fill="#53389E"/>
<path d="M101.073 148H104.683V222H101.073V148Z" fill="#53389E"/>
<path d="M108.293 148H111.903V222H108.293V148Z" fill="#53389E"/>
<path d="M115.512 148H119.122V222H115.512V148Z" fill="#53389E"/>
<path d="M122.732 148H126.342V222H122.732V148Z" fill="#53389E"/>
<path d="M129.951 148H133.561V222H129.951V148Z" fill="#53389E"/>
<path d="M137.171 148H140.781V222H137.171V148Z" fill="#53389E"/>
<path d="M144.39 148H148L148 222L144.39 222V148Z" fill="#53389E"/>
<path d="M1036 370C1036 410.869 1002.87 444 962 444C921.131 444 888 410.869 888 370H1036Z" fill="#53389E"/>
<path d="M888 296H891.61V370L888 370L888 296Z" fill="#53389E"/>
<path d="M895.22 296H898.829V370H895.22V296Z" fill="#53389E"/>
<path d="M902.439 296H906.049V370H902.439V296Z" fill="#53389E"/>
<path d="M909.659 296H913.268V370H909.659V296Z" fill="#53389E"/>
<path d="M916.878 296H920.488V370H916.878V296Z" fill="#53389E"/>
<path d="M924.098 296H927.707V370H924.098V296Z" fill="#53389E"/>
<path d="M931.317 296H934.927V370H931.317V296Z" fill="#53389E"/>
<path d="M938.537 296H942.146V370H938.537V296Z" fill="#53389E"/>
<path d="M945.756 296H949.366V370H945.756V296Z" fill="#53389E"/>
<path d="M952.976 296H956.586V370H952.976V296Z" fill="#53389E"/>
<path d="M960.195 296H963.805V370H960.195V296Z" fill="#53389E"/>
<path d="M967.415 296H971.025V370H967.415V296Z" fill="#53389E"/>
<path d="M974.634 296H978.244V370H974.634V296Z" fill="#53389E"/>
<path d="M981.854 296H985.464V370H981.854V296Z" fill="#53389E"/>
<path d="M989.073 296H992.683V370H989.073V296Z" fill="#53389E"/>
<path d="M996.293 296H999.903V370H996.293V296Z" fill="#53389E"/>
<path d="M1003.51 296H1007.12V370H1003.51V296Z" fill="#53389E"/>
<path d="M1010.73 296H1014.34V370H1010.73V296Z" fill="#53389E"/>
<path d="M1017.95 296H1021.56V370H1017.95V296Z" fill="#53389E"/>
<path d="M1025.17 296H1028.78V370H1025.17V296Z" fill="#53389E"/>
<path d="M1032.39 296H1036L1036 370L1032.39 370V296Z" fill="#53389E"/>
<path fill-rule="evenodd" clip-rule="evenodd" d="M370 148C410.87 148 444 114.869 444 74C444 33.1309 410.87 0 370 0C329.131 0 296 33.1309 296 74C296 114.869 329.131 148 370 148ZM370 111C390.435 111 407 94.4345 407 74C407 53.5655 390.435 37 370 37C349.566 37 333 53.5655 333 74C333 94.4345 349.566 111 370 111Z" fill="#D6BBFB"/>
<path d="M335.708 60.0811C333.962 64.3778 333 69.0766 333 74C333 78.9234 333.962 83.6222 335.708 87.9188V60.0811Z" fill="#D6BBFB"/>
<path d="M342.927 99.2201C341.61 97.8068 340.402 96.2904 339.318 94.6841V53.3159C340.402 51.7096 341.61 50.1931 342.927 48.7799V99.2201Z" fill="#D6BBFB"/>
<path d="M350.147 105.228C348.89 104.427 347.685 103.552 346.537 102.61V45.3897C347.685 44.4475 348.89 43.5729 350.147 42.7722V105.228Z" fill="#D6BBFB"/>
<path d="M357.366 108.787C356.131 108.338 354.926 107.825 353.757 107.253V40.7471C354.926 40.1746 356.131 39.6619 357.366 39.2132V108.787Z" fill="#D6BBFB"/>
<path d="M364.586 110.607C363.362 110.427 362.158 110.188 360.976 109.892V38.1084C362.158 37.8122 363.362 37.5728 364.586 37.3934V110.607Z" fill="#D6BBFB"/>
<path d="M371.805 110.957C371.207 110.985 370.606 111 370 111C369.395 111 368.794 110.985 368.196 110.957V37.0432C368.794 37.0145 369.395 37 370 37C370.606 37 371.207 37.0145 371.805 37.0432V110.957Z" fill="#D6BBFB"/>
<path d="M379.025 109.892C377.843 110.188 376.639 110.427 375.415 110.607V37.3934C376.639 37.5728 377.843 37.8122 379.025 38.1083V109.892Z" fill="#D6BBFB"/>
<path d="M386.244 107.253C385.074 107.825 383.87 108.338 382.635 108.787V39.2132C383.87 39.6619 385.074 40.1745 386.244 40.7471V107.253Z" fill="#D6BBFB"/>
<path d="M393.464 102.61C392.316 103.553 391.111 104.427 389.854 105.228V42.7721C391.111 43.5729 392.316 44.4475 393.464 45.3897V102.61Z" fill="#D6BBFB"/>
<path d="M400.683 94.6842C399.598 96.2904 398.391 97.8069 397.074 99.2201V48.7799C398.391 50.1931 399.598 51.7096 400.683 53.3158V94.6842Z" fill="#D6BBFB"/>
<path d="M404.293 60.081C406.039 64.3777 407 69.0765 407 74C407 78.9234 406.039 83.6223 404.293 87.9189V60.081Z" fill="#D6BBFB"/>
<path fill-rule="evenodd" clip-rule="evenodd" d="M814 444C854.869 444 888 410.869 888 370C888 329.131 854.869 296 814 296C773.131 296 740 329.131 740 370C740 410.869 773.131 444 814 444ZM814 407C834.435 407 851 390.435 851 370C851 349.565 834.435 333 814 333C793.565 333 777 349.565 777 370C777 390.435 793.565 407 814 407Z" fill="#D6BBFB"/>
<path d="M779.707 356.081C777.962 360.378 777 365.077 777 370C777 374.923 777.962 379.622 779.707 383.919V356.081Z" fill="#D6BBFB"/>
<path d="M786.927 395.22C785.61 393.807 784.402 392.29 783.317 390.684V349.316C784.402 347.71 785.61 346.193 786.927 344.78V395.22Z" fill="#D6BBFB"/>
<path d="M794.146 401.228C792.889 400.427 791.684 399.552 790.537 398.61V341.39C791.684 340.447 792.889 339.573 794.146 338.772V401.228Z" fill="#D6BBFB"/>
<path d="M801.366 404.787C800.131 404.338 798.926 403.825 797.756 403.253V336.747C798.926 336.175 800.131 335.662 801.366 335.213V404.787Z" fill="#D6BBFB"/>
<path d="M808.585 406.607C807.362 406.427 806.157 406.188 804.976 405.892V334.108C806.157 333.812 807.362 333.573 808.585 333.393V406.607Z" fill="#D6BBFB"/>
<path d="M815.805 406.957C815.207 406.985 814.605 407 814 407C813.395 407 812.793 406.985 812.195 406.957V333.043C812.793 333.015 813.395 333 814 333C814.605 333 815.207 333.015 815.805 333.043V406.957Z" fill="#D6BBFB"/>
<path d="M823.024 405.892C821.843 406.188 820.638 406.427 819.415 406.607V333.393C820.638 333.573 821.843 333.812 823.024 334.108V405.892Z" fill="#D6BBFB"/>
<path d="M830.244 403.253C829.074 403.825 827.869 404.338 826.634 404.787V335.213C827.869 335.662 829.074 336.175 830.244 336.747V403.253Z" fill="#D6BBFB"/>
<path d="M837.463 398.61C836.316 399.553 835.111 400.427 833.854 401.228V338.772C835.111 339.573 836.316 340.447 837.463 341.39V398.61Z" fill="#D6BBFB"/>
<path d="M844.683 390.684C843.598 392.29 842.39 393.807 841.073 395.22V344.78C842.39 346.193 843.598 347.71 844.683 349.316V390.684Z" fill="#D6BBFB"/>
<path d="M848.293 356.081C850.038 360.378 851 365.077 851 370C851 374.923 850.038 379.622 848.293 383.919V356.081Z" fill="#D6BBFB"/>
<path d="M595.61 51.1052C593.267 58.3145 592 66.0093 592 74C592 81.9907 593.267 89.6855 595.61 96.8948V51.1052Z" fill="#D6BBFB"/>
<path d="M602.829 112.562C601.517 110.418 600.312 108.201 599.22 105.92V42.0797C600.312 39.7987 601.517 37.5823 602.829 35.438V112.562Z" fill="#D6BBFB"/>
<path d="M610.049 122.432C608.789 120.977 607.584 119.473 606.439 117.923V30.0773C607.584 28.5269 608.789 27.0227 610.049 25.5682V122.432Z" fill="#D6BBFB"/>
<path d="M617.268 129.69C616.028 128.603 614.824 127.476 613.659 126.31V21.6897C614.824 20.5237 616.028 19.3965 617.268 18.3101V129.69Z" fill="#D6BBFB"/>
<path d="M624.488 135.268C623.258 134.433 622.054 133.562 620.878 132.656V15.3438C622.054 14.438 623.258 13.5667 624.488 12.7316V135.268Z" fill="#D6BBFB"/>
<path d="M631.707 139.592C630.484 138.95 629.28 138.276 628.098 137.57V10.4305C629.28 9.72403 630.484 9.04964 631.707 8.40849V139.592Z" fill="#D6BBFB"/>
<path d="M638.927 142.891C637.707 142.411 636.504 141.9 635.317 141.359V6.64103C636.504 6.09956 637.707 5.58854 638.927 5.10896V142.891Z" fill="#D6BBFB"/>
<path d="M646.146 145.306C644.93 144.969 643.727 144.6 642.537 144.203V3.79714C643.727 3.39957 644.93 3.03142 646.146 2.69354V145.306Z" fill="#D6BBFB"/>
<path d="M653.366 146.926C652.152 146.717 650.949 146.479 649.756 146.212V1.78848C650.949 1.52136 652.152 1.28303 653.366 1.07426V146.926Z" fill="#D6BBFB"/>
<path d="M660.585 147.805C659.374 147.717 658.17 147.601 656.976 147.455V0.544736C658.17 0.39948 659.374 0.282695 660.585 0.195078V147.805Z" fill="#D6BBFB"/>
<path d="M667.805 147.978C667.205 147.993 666.603 148 666 148C665.397 148 664.795 147.993 664.195 147.978V0.0215799C664.795 0.00722052 665.397 0 666 0C666.603 0 667.205 0.00722052 667.805 0.0215799V147.978Z" fill="#D6BBFB"/>
<path d="M675.024 147.455C673.83 147.601 672.626 147.717 671.415 147.805V0.195078C672.626 0.282694 673.83 0.39948 675.024 0.544735V147.455Z" fill="#D6BBFB"/>
<path d="M682.244 146.212C681.051 146.479 679.848 146.717 678.634 146.926V1.07426C679.848 1.28303 681.051 1.52136 682.244 1.78848V146.212Z" fill="#D6BBFB"/>
<path d="M689.463 144.203C688.273 144.6 687.07 144.969 685.854 145.306V2.69353C687.07 3.03141 688.273 3.39957 689.463 3.79714V144.203Z" fill="#D6BBFB"/>
<path d="M696.683 141.359C695.496 141.9 694.293 142.411 693.073 142.891V5.10896C694.293 5.58854 695.496 6.09956 696.683 6.64103V141.359Z" fill="#D6BBFB"/>
<path d="M703.902 137.57C702.72 138.276 701.516 138.95 700.293 139.592V8.40848C701.516 9.04963 702.72 9.72403 703.902 10.4305V137.57Z" fill="#D6BBFB"/>
<path d="M711.122 132.656C709.946 133.562 708.742 134.433 707.512 135.268V12.7316C708.742 13.5667 709.946 14.438 711.122 15.3438V132.656Z" fill="#D6BBFB"/>
<path d="M718.341 126.31C717.176 127.476 715.972 128.603 714.732 129.69V18.3101C715.972 19.3965 717.176 20.5237 718.341 21.6897V126.31Z" fill="#D6BBFB"/>
<path d="M725.561 117.923C724.416 119.473 723.211 120.977 721.951 122.432V25.5682C723.211 27.0227 724.416 28.5269 725.561 30.0773V117.923Z" fill="#D6BBFB"/>
<path d="M732.78 105.92C731.688 108.201 730.483 110.418 729.171 112.562V35.438C730.483 37.5823 731.688 39.7987 732.78 42.0797V105.92Z" fill="#D6BBFB"/>
<path d="M740 74C740 81.9907 738.733 89.6855 736.39 96.8948V51.1052C738.733 58.3145 740 66.0093 740 74Z" fill="#D6BBFB"/>
<path d="M703 74C703 94.4345 686.435 111 666 111C645.565 111 629 94.4345 629 74C629 53.5654 645.565 37 666 37C686.435 37 703 53.5654 703 74Z" fill="#D6BBFB"/>
<path d="M74 444C74 436.01 72.7335 428.315 70.3902 421.105V444H74Z" fill="#B692F6"/>
<path d="M63.1707 405.438C64.4825 407.583 65.6882 409.799 66.7805 412.08L66.7805 444H63.1707V405.438Z" fill="#B692F6"/>
<path d="M55.9512 395.569C57.2113 397.023 58.4157 398.527 59.561 400.078V444H55.9512L55.9512 395.569Z" fill="#B692F6"/>
<path d="M48.7317 388.31C49.9723 389.397 51.1762 390.524 52.3414 391.69V444H48.7317L48.7317 388.31Z" fill="#B692F6"/>
<path d="M41.5122 382.732C42.7424 383.567 43.9462 384.438 45.1219 385.344V444H41.5122V382.732Z" fill="#B692F6"/>
<path d="M34.2927 378.409C35.5165 379.05 36.7201 379.724 37.9024 380.431L37.9024 444H34.2927V378.409Z" fill="#B692F6"/>
<path d="M27.0732 375.109C28.2926 375.589 29.4961 376.1 30.6829 376.641V444H27.0732V375.109Z" fill="#B692F6"/>
<path d="M19.8536 372.694C21.0698 373.032 22.2733 373.4 23.4634 373.797L23.4634 444H19.8537L19.8536 372.694Z" fill="#B692F6"/>
<path d="M12.6341 371.075C13.8477 371.283 15.0513 371.522 16.2439 371.789L16.2439 444H12.6341L12.6341 371.075Z" fill="#B692F6"/>
<path d="M5.41463 370.195C6.62619 370.283 7.82968 370.4 9.02438 370.545L9.02438 444H5.41463L5.41463 370.195Z" fill="#B692F6"/>
<path d="M0 370.022C1.19977 369.993 0.605096 369.993 1.80487 370.022L1.80487 444H6.13669e-06L0 370.022Z" fill="#B692F6"/>
<path fill-rule="evenodd" clip-rule="evenodd" d="M148 444C148 362.262 81.7381 296 0 296V333C61.3036 333 111 382.696 111 444L148 444Z" fill="#B692F6"/>
<path d="M1184 370C1176.01 370 1168.31 371.267 1161.11 373.61H1184V370Z" fill="#B692F6"/>
<path d="M1145.44 380.829C1147.58 379.517 1149.8 378.312 1152.08 377.22L1184 377.22V380.829H1145.44Z" fill="#B692F6"/>
<path d="M1135.57 388.049C1137.02 386.789 1138.53 385.584 1140.08 384.439H1184V388.049L1135.57 388.049Z" fill="#B692F6"/>
<path d="M1128.31 395.268C1129.4 394.028 1130.52 392.824 1131.69 391.659H1184V395.268L1128.31 395.268Z" fill="#B692F6"/>
<path d="M1122.73 402.488C1123.57 401.258 1124.44 400.054 1125.34 398.878H1184V402.488H1122.73Z" fill="#B692F6"/>
<path d="M1118.41 409.707C1119.05 408.484 1119.72 407.28 1120.43 406.098L1184 406.098V409.707H1118.41Z" fill="#B692F6"/>
<path d="M1115.11 416.927C1115.59 415.707 1116.1 414.504 1116.64 413.317H1184V416.927H1115.11Z" fill="#B692F6"/>
<path d="M1112.69 424.146C1113.03 422.93 1113.4 421.727 1113.8 420.537L1184 420.537V424.146L1112.69 424.146Z" fill="#B692F6"/>
<path d="M1111.07 431.366C1111.28 430.152 1111.52 428.949 1111.79 427.756L1184 427.756V431.366L1111.07 431.366Z" fill="#B692F6"/>
<path d="M1110.2 438.585C1110.28 437.374 1110.4 436.17 1110.55 434.976L1184 434.976V438.585L1110.2 438.585Z" fill="#B692F6"/>
<path d="M1110.02 444C1109.99 442.8 1109.99 443.395 1110.02 442.195L1184 442.195V444L1110.02 444Z" fill="#B692F6"/>
<path fill-rule="evenodd" clip-rule="evenodd" d="M1184 296C1102.26 296 1036 362.262 1036 444H1073C1073 382.696 1122.7 333 1184 333L1184 296Z" fill="#B692F6"/>
<path d="M740 296V259C801.304 259 851 209.304 851 148L888 148C888 229.738 821.738 296 740 296Z" fill="#6941C6"/>
<path d="M740 148H666L740 222V148Z" fill="#D6BBFB"/>
<path d="M740 222L666 222L740 296L740 222Z" fill="#D6BBFB"/>
<path d="M666 148L592 148L666 222L666 148Z" fill="#D6BBFB"/>
<path d="M666 222H592L666 296L666 222Z" fill="#D6BBFB"/>
<path d="M592 0H444L481 37H555V111L592 148V0Z" fill="#53389E"/>
<path d="M481 111H555L481 37L481 111Z" fill="#53389E"/>
<path fill-rule="evenodd" clip-rule="evenodd" d="M444 148C362.262 148 296 214.262 296 296V444C377.739 444 444 377.738 444 296V148ZM325.6 296C325.6 240.83 363.334 194.473 414.4 181.33V296C414.4 351.169 376.667 397.526 325.6 410.67V296Z" fill="#9E77ED"/>
<path d="M385.571 192.998C387.814 191.722 390.104 190.518 392.436 189.388H414.401V192.998H385.571Z" fill="#9E77ED"/>
<path d="M374.385 200.217C376.101 198.969 377.851 197.765 379.634 196.608L414.401 196.608V200.217H374.385Z" fill="#9E77ED"/>
<path d="M365.416 207.437C366.808 206.201 368.229 204.997 369.679 203.827L414.401 203.827V207.437H365.416Z" fill="#9E77ED"/>
<path d="M357.966 214.656C359.128 213.428 360.316 212.225 361.529 211.047L414.401 211.047V214.656L357.966 214.656Z" fill="#9E77ED"/>
<path d="M351.669 221.876C352.652 220.653 353.659 219.449 354.69 218.266L414.401 218.266V221.876H351.669Z" fill="#9E77ED"/>
<path d="M346.302 229.096C347.139 227.876 347.998 226.672 348.879 225.486L414.401 225.486V229.095L346.302 229.096Z" fill="#9E77ED"/>
<path d="M341.722 236.315C342.434 235.098 343.167 233.894 343.921 232.705H414.401V236.315H341.722Z" fill="#9E77ED"/>
<path d="M337.83 243.535C338.432 242.319 339.054 241.116 339.695 239.925L414.401 239.925V243.535L337.83 243.535Z" fill="#9E77ED"/>
<path d="M334.553 250.754C335.056 249.54 335.577 248.337 336.118 247.144L414.401 247.144V250.754H334.553Z" fill="#9E77ED"/>
<path d="M331.839 257.974C332.25 256.761 332.68 255.558 333.129 254.364H414.401V257.974L331.839 257.974Z" fill="#9E77ED"/>
<path d="M329.648 265.193C329.974 263.982 330.318 262.779 330.68 261.583H414.401V265.193H329.648Z" fill="#9E77ED"/>
<path d="M327.95 272.413C328.201 271.172 328.471 269.939 328.761 268.713H414.401V272.413L327.95 272.413Z" fill="#9E77ED"/>
<path d="M326.735 279.542C326.904 278.333 327.09 277.129 327.294 275.932L414.401 275.932V279.542H326.735Z" fill="#9E77ED"/>
<path d="M325.956 286.761C326.049 285.553 326.161 284.35 326.29 283.152H414.401V286.761L325.956 286.761Z" fill="#9E77ED"/>
<path d="M325.618 293.981C325.638 292.773 325.676 291.57 325.732 290.371H414.401V293.981H325.618Z" fill="#9E77ED"/>
<path d="M325.601 301.2V297.591H414.39C414.374 298.798 414.34 300.002 414.289 301.2L325.601 301.2Z" fill="#9E77ED"/>
<path d="M325.601 308.42V304.81L414.078 304.81C413.989 306.019 413.882 307.222 413.757 308.42H325.601Z" fill="#9E77ED"/>
<path d="M325.601 315.639V312.03H413.325C413.161 313.239 412.979 314.442 412.779 315.639L325.601 315.639Z" fill="#9E77ED"/>
<path d="M325.601 322.859V319.249H412.119C411.878 320.459 411.619 321.663 411.341 322.859H325.601Z" fill="#9E77ED"/>
<path d="M325.601 330.078V326.469H410.443C410.122 327.68 409.782 328.883 409.423 330.078L325.601 330.078Z" fill="#9E77ED"/>
<path d="M325.601 337.298V333.688L408.276 333.688C407.869 334.9 407.444 336.104 406.999 337.298H325.601Z" fill="#9E77ED"/>
<path d="M325.601 344.517V340.908H405.587C405.09 342.121 404.572 343.325 404.036 344.517L325.601 344.517Z" fill="#9E77ED"/>
<path d="M325.601 351.737V348.127H402.338C401.741 349.342 401.124 350.546 400.487 351.737H325.601Z" fill="#9E77ED"/>
<path d="M325.601 358.956V355.347H398.476C397.769 356.564 397.042 357.767 396.294 358.956H325.601Z" fill="#9E77ED"/>
<path d="M325.601 366.176V362.566H393.93C393.1 363.786 392.247 364.989 391.372 366.176H325.601Z" fill="#9E77ED"/>
<path d="M325.601 373.396V369.786H388.603C387.627 371.009 386.628 372.213 385.605 373.396H325.601Z" fill="#9E77ED"/>
<path d="M325.601 380.615V377.005H382.353C381.201 378.233 380.022 379.437 378.819 380.615H325.601Z" fill="#9E77ED"/>
<path d="M325.601 387.835V384.225H374.964C373.584 385.46 372.176 386.664 370.739 387.835H325.601Z" fill="#9E77ED"/>
<path d="M325.601 395.054V391.444H366.078C364.381 392.692 362.649 393.896 360.885 395.054H325.601Z" fill="#9E77ED"/>
<path d="M325.601 402.274V398.664H355.021C352.81 399.937 350.555 401.142 348.257 402.274H325.601Z" fill="#9E77ED"/>
<path d="M325.601 409.493V405.883H340.178C336.806 407.24 333.358 408.446 329.841 409.493H325.601Z" fill="#9E77ED"/>
<path d="M414.401 185.778H400.673C404.143 184.413 407.694 183.207 411.316 182.169H414.401V185.778Z" fill="#9E77ED"/>
<path fill-rule="evenodd" clip-rule="evenodd" d="M148 148C229.739 148 296 214.262 296 296V444C214.262 444 148 377.738 148 296V148ZM266.4 296C266.4 240.83 228.667 194.473 177.6 181.33V296C177.6 351.169 215.334 397.526 266.4 410.67V296Z" fill="#7F56D9"/>
<path d="M206.43 192.998C204.186 191.722 201.897 190.518 199.565 189.388H177.6V192.998H206.43Z" fill="#7F56D9"/>
<path d="M217.615 200.217C215.9 198.969 214.15 197.765 212.367 196.608L177.6 196.608V200.217H217.615Z" fill="#7F56D9"/>
<path d="M226.584 207.437C225.193 206.201 223.771 204.997 222.322 203.827L177.6 203.827V207.437H226.584Z" fill="#7F56D9"/>
<path d="M234.034 214.656C232.873 213.428 231.685 212.225 230.472 211.047L177.6 211.047V214.656L234.034 214.656Z" fill="#7F56D9"/>
<path d="M240.332 221.876C239.349 220.653 238.342 219.449 237.311 218.266L177.6 218.266V221.876H240.332Z" fill="#7F56D9"/>
<path d="M245.699 229.096C244.862 227.876 244.003 226.672 243.122 225.486L177.6 225.486V229.095L245.699 229.096Z" fill="#7F56D9"/>
<path d="M250.278 236.315C249.567 235.098 248.834 233.894 248.08 232.705H177.6V236.315H250.278Z" fill="#7F56D9"/>
<path d="M254.171 243.535C253.569 242.319 252.947 241.116 252.305 239.925L177.6 239.925V243.535L254.171 243.535Z" fill="#7F56D9"/>
<path d="M257.448 250.754C256.945 249.54 256.423 248.337 255.882 247.144L177.6 247.144V250.754H257.448Z" fill="#7F56D9"/>
<path d="M260.162 257.974C259.751 256.761 259.321 255.558 258.872 254.364H177.6V257.974L260.162 257.974Z" fill="#7F56D9"/>
<path d="M262.353 265.193C262.027 263.982 261.683 262.779 261.32 261.583H177.6V265.193H262.353Z" fill="#7F56D9"/>
<path d="M264.051 272.413C263.8 271.172 263.53 269.939 263.24 268.713H177.6V272.413L264.051 272.413Z" fill="#7F56D9"/>
<path d="M265.265 279.542C265.097 278.333 264.911 277.129 264.707 275.932L177.6 275.932V279.542H265.265Z" fill="#7F56D9"/>
<path d="M266.045 286.761C265.952 285.553 265.84 284.35 265.711 283.152H177.6V286.761L266.045 286.761Z" fill="#7F56D9"/>
<path d="M266.383 293.981C266.363 292.773 266.325 291.57 266.269 290.371H177.6V293.981H266.383Z" fill="#7F56D9"/>
<path d="M266.4 301.2V297.591H177.611C177.627 298.798 177.661 300.002 177.712 301.2L266.4 301.2Z" fill="#7F56D9"/>
<path d="M266.4 308.42V304.81L177.923 304.81C178.012 306.019 178.119 307.222 178.244 308.42H266.4Z" fill="#7F56D9"/>
<path d="M266.4 315.639V312.03H178.676C178.84 313.239 179.022 314.442 179.222 315.639L266.4 315.639Z" fill="#7F56D9"/>
<path d="M266.4 322.859V319.249H179.882C180.123 320.459 180.382 321.663 180.66 322.859H266.4Z" fill="#7F56D9"/>
<path d="M266.4 330.078V326.469H181.557C181.879 327.68 182.219 328.883 182.578 330.078L266.4 330.078Z" fill="#7F56D9"/>
<path d="M266.4 337.298V333.688L183.725 333.688C184.131 334.9 184.557 336.104 185.002 337.298H266.4Z" fill="#7F56D9"/>
<path d="M266.4 344.517V340.908H186.414C186.911 342.121 187.429 343.325 187.965 344.517L266.4 344.517Z" fill="#7F56D9"/>
<path d="M266.4 351.737V348.127H189.663C190.26 349.342 190.877 350.546 191.514 351.737H266.4Z" fill="#7F56D9"/>
<path d="M266.4 358.956V355.347H193.525C194.232 356.564 194.959 357.767 195.707 358.956H266.4Z" fill="#7F56D9"/>
<path d="M266.4 366.176V362.566H198.071C198.901 363.786 199.754 364.989 200.629 366.176H266.4Z" fill="#7F56D9"/>
<path d="M266.4 373.396V369.786H203.397C204.373 371.009 205.373 372.213 206.396 373.396H266.4Z" fill="#7F56D9"/>
<path d="M266.4 380.615V377.005H209.648C210.8 378.233 211.979 379.437 213.182 380.615H266.4Z" fill="#7F56D9"/>
<path d="M266.4 387.835V384.225H217.037C218.417 385.46 219.825 386.664 221.262 387.835H266.4Z" fill="#7F56D9"/>
<path d="M266.4 395.054V391.444H225.923C227.62 392.692 229.352 393.896 231.116 395.054H266.4Z" fill="#7F56D9"/>
<path d="M266.4 402.274V398.664H236.98C239.191 399.937 241.446 401.142 243.744 402.274H266.4Z" fill="#7F56D9"/>
<path d="M266.4 409.493V405.883H251.823C255.195 407.24 258.643 408.446 262.159 409.493H266.4Z" fill="#7F56D9"/>
<path d="M177.6 185.778H191.328C187.857 184.413 184.307 183.207 180.685 182.169H177.6V185.778Z" fill="#7F56D9"/>
<path d="M740 4.90935e-05H888L740 148V4.90935e-05Z" fill="#9E77ED"/>
<path d="M743.61 51.1052C741.267 58.3145 740 66.0093 740 74C740 81.9907 741.267 89.6855 743.61 96.8948V51.1052Z" fill="#9E77ED"/>
<path d="M750.829 112.562C749.517 110.418 748.312 108.201 747.22 105.92V42.0797C748.312 39.7987 749.517 37.5823 750.829 35.438V112.562Z" fill="#9E77ED"/>
<path d="M758.049 122.432C756.789 120.977 755.584 119.473 754.439 117.923V30.0773C755.584 28.5269 756.789 27.0227 758.049 25.5682V122.432Z" fill="#9E77ED"/>
<path d="M765.268 129.69C764.028 128.603 762.824 127.476 761.659 126.31V21.6897C762.824 20.5237 764.028 19.3965 765.268 18.3101V129.69Z" fill="#9E77ED"/>
<path d="M772.488 135.268C771.258 134.433 770.054 133.562 768.878 132.656V15.3438C770.054 14.438 771.258 13.5667 772.488 12.7316V135.268Z" fill="#9E77ED"/>
<path d="M779.707 139.591C778.484 138.95 777.28 138.276 776.098 137.569V10.4305C777.28 9.72403 778.484 9.04963 779.707 8.40848V139.591Z" fill="#9E77ED"/>
<path d="M786.927 142.891C785.707 142.411 784.504 141.9 783.317 141.359V6.64103C784.504 6.09956 785.707 5.58854 786.927 5.10896V142.891Z" fill="#9E77ED"/>
<path d="M794.146 145.306C792.93 144.969 791.727 144.6 790.537 144.203V3.79714C791.727 3.39957 792.93 3.03142 794.146 2.69354V145.306Z" fill="#9E77ED"/>
<path d="M801.366 146.926C800.152 146.717 798.949 146.479 797.756 146.211V1.78848C798.949 1.52136 800.152 1.28303 801.366 1.07426V146.926Z" fill="#9E77ED"/>
<path d="M808.585 147.805C807.374 147.717 806.17 147.6 804.976 147.455V0.544736C806.17 0.39948 807.374 0.282695 808.585 0.195078V147.805Z" fill="#9E77ED"/>
<path d="M815.805 147.978C815.205 147.993 814.603 148 814 148C813.397 148 812.795 147.993 812.195 147.978V0.0215799C812.795 0.00722052 813.397 0 814 0C814.603 0 815.205 0.00722052 815.805 0.0215799V147.978Z" fill="#9E77ED"/>
<path d="M823.024 147.455C821.83 147.6 820.626 147.717 819.415 147.805V0.195078C820.626 0.282694 821.83 0.399479 823.024 0.544735V147.455Z" fill="#9E77ED"/>
<path d="M830.244 146.211C829.051 146.479 827.848 146.717 826.634 146.926V1.07426C827.848 1.28303 829.051 1.52136 830.244 1.78848V146.211Z" fill="#9E77ED"/>
<path d="M837.463 144.203C836.273 144.6 835.07 144.969 833.854 145.306V2.69353C835.07 3.03141 836.273 3.39957 837.463 3.79714V144.203Z" fill="#9E77ED"/>
<path d="M844.683 141.359C843.496 141.9 842.293 142.411 841.073 142.891V5.10895C842.293 5.58854 843.496 6.09956 844.683 6.64103V141.359Z" fill="#9E77ED"/>
<path d="M851.902 137.569C850.72 138.276 849.516 138.95 848.293 139.591V8.40848C849.516 9.04963 850.72 9.72403 851.902 10.4305V137.569Z" fill="#9E77ED"/>
<path d="M859.122 132.656C857.946 133.562 856.742 134.433 855.512 135.268V12.7316C856.742 13.5667 857.946 14.438 859.122 15.3438V132.656Z" fill="#9E77ED"/>
<path d="M866.341 126.31C865.176 127.476 863.972 128.603 862.732 129.69V18.3101C863.972 19.3965 865.176 20.5237 866.341 21.6897V126.31Z" fill="#9E77ED"/>
<path d="M873.561 117.923C872.416 119.473 871.211 120.977 869.951 122.432V25.5682C871.211 27.0227 872.416 28.5269 873.561 30.0773V117.923Z" fill="#9E77ED"/>
<path d="M880.78 105.92C879.688 108.201 878.483 110.418 877.171 112.562V35.438C878.483 37.5823 879.688 39.7987 880.78 42.0797V105.92Z" fill="#9E77ED"/>
<path d="M888 74C888 81.9907 886.733 89.6855 884.39 96.8948V51.1052C886.733 58.3144 888 66.0093 888 74Z" fill="#9E77ED"/>
</svg>
